<?xml version="1.0" standalone="no"?>
<!DOCTYPE svg PUBLIC "-//W3C//DTD SVG 20010904//EN"
 "http://www.w3.org/TR/2001/REC-SVG-20010904/DTD/svg10.dtd">
<svg version="1.0" xmlns="http://www.w3.org/2000/svg"
 width="404.000000pt" height="404.000000pt" viewBox="0 0 404.000000 404.000000"
 preserveAspectRatio="xMidYMid meet">
<metadata>
Created by potrace 1.11, written by Peter Selinger 2001-2013
</metadata>
<g transform="translate(0.000000,404.000000) scale(0.100000,-0.100000)"
fill="#000000" stroke="none">
<path d="M0 2020 l0 -2000 1455 0 1456 0 -3 115 c-2 63 0 115 4 115 4 0 5 6 3
13 -10 29 -13 67 -5 67 5 0 7 6 5 12 -10 30 -13 68 -5 68 5 0 7 6 5 13 -11 30
-13 67 -4 67 6 0 7 4 4 10 -3 5 -6 64 -7 130 -1 114 -8 151 -22 114 -5 -12
-10 -13 -19 -6 -7 6 -35 10 -63 10 -27 -1 -55 2 -62 6 -7 4 -12 2 -12 -5 0 -7
-3 -9 -7 -6 -3 4 -12 2 -19 -4 -10 -8 -12 -6 -9 13 4 21 3 21 -9 6 -10 -14
-15 -15 -26 -5 -10 10 -12 8 -6 -7 5 -16 4 -17 -9 -6 -8 7 -24 10 -35 7 -11
-3 -23 0 -26 5 -4 7 -10 4 -16 -6 -7 -12 -13 -14 -22 -7 -6 5 -34 9 -62 9 -27
-1 -55 2 -62 6 -7 4 -12 2 -12 -5 0 -7 -3 -9 -7 -6 -3 4 -12 2 -19 -4 -10 -8
-12 -6 -9 13 4 21 3 21 -9 6 -10 -14 -15 -15 -26 -5 -10 10 -12 8 -6 -7 5 -16
4 -17 -9 -6 -8 7 -24 10 -35 7 -11 -3 -23 0 -26 5 -4 7 -10 4 -16 -6 -7 -12
-13 -14 -22 -7 -6 5 -34 9 -62 9 -27 -1 -55 2 -62 6 -7 4 -12 2 -12 -5 0 -7
-3 -9 -7 -6 -3 4 -12 2 -19 -4 -10 -8 -12 -6 -9 13 4 21 3 21 -9 6 -10 -14
-15 -15 -26 -5 -10 10 -12 8 -6 -7 5 -16 4 -17 -9 -6 -8 7 -24 10 -35 7 -11
-3 -23 -1 -26 5 -4 6 -10 5 -15 -3 -8 -12 -11 -11 -19 1 -6 10 -10 11 -10 3 0
-15 -21 -13 -32 2 -5 6 -8 5 -8 -4 0 -11 -3 -11 -17 0 -15 12 -16 12 -10 -5 6
-16 5 -17 -8 -6 -8 7 -24 10 -35 7 -11 -3 -22 -1 -25 4 -3 4 -16 4 -28 0 -14
-6 -30 -5 -41 1 -10 6 -16 6 -13 1 7 -10 -116 -8 -134 3 -8 4 -9 3 -5 -4 4 -7
3 -12 -3 -12 -5 0 -12 6 -14 13 -4 9 -6 8 -6 -2 -1 -11 -4 -11 -18 0 -15 12
-16 12 -10 -6 7 -20 7 -20 -8 -1 -9 12 -15 15 -15 7 0 -11 -3 -11 -17 0 -11
10 -14 10 -9 2 4 -7 2 -13 -3 -13 -6 0 -11 6 -11 13 0 9 -2 9 -9 -1 -4 -8 -12
-14 -16 -14 -4 0 -12 6 -16 14 -7 11 -9 11 -9 -1 0 -11 -3 -11 -17 0 -15 12
-16 12 -10 -5 6 -16 5 -17 -8 -6 -8 7 -24 10 -35 7 -11 -3 -22 -1 -25 4 -3 4
-16 4 -28 0 -14 -6 -30 -5 -41 1 -10 6 -16 6 -13 1 7 -10 -116 -8 -134 3 -8 4
-9 3 -5 -4 4 -7 3 -12 -3 -12 -5 0 -12 6 -14 13 -4 9 -6 8 -6 -2 -1 -11 -4
-11 -18 0 -15 12 -16 12 -10 -6 7 -20 7 -20 -8 -1 -9 12 -15 15 -15 7 0 -11
-3 -11 -17 0 -11 10 -14 10 -9 2 4 -7 2 -13 -3 -13 -6 0 -11 6 -11 13 0 9 -2
9 -9 -1 -11 -17 -21 -17 -32 0 -7 11 -9 11 -9 -1 0 -11 -3 -11 -17 0 -15 12
-16 12 -10 -5 6 -16 5 -17 -8 -6 -8 7 -24 10 -35 7 -11 -3 -23 -1 -26 4 -3 5
-13 5 -24 -1 -24 -13 -30 -13 -30 1 0 5 6 7 13 4 6 -4 4 0 -5 8 -23 18 -23 27
-1 27 15 0 14 2 -3 15 -14 11 -15 14 -4 15 13 0 13 1 0 10 -9 6 -10 10 -3 10
8 0 9 9 2 32 -11 41 -11 41 1 33 7 -4 7 3 0 19 -8 22 -7 26 7 26 14 0 14 2 -3
15 -14 11 -15 14 -4 15 13 0 13 1 0 10 -13 9 -13 10 0 10 11 1 10 4 -4 15 -17
13 -17 15 -4 15 9 0 20 5 24 12 4 6 3 8 -4 4 -14 -9 -20 22 -11 57 7 25 6 28
-9 23 -15 -5 -15 -4 -2 6 12 10 14 28 10 81 -3 41 -1 67 5 67 6 0 1 7 -9 15
-18 14 -18 15 -2 15 13 0 16 5 11 23 -4 12 -9 30 -12 41 -3 12 -1 16 6 12 8
-5 8 0 1 18 -8 22 -7 26 8 26 15 1 15 2 -2 11 -15 9 -16 13 -5 20 9 6 10 9 2
9 -8 0 -9 9 -3 31 8 27 7 30 -8 25 -15 -5 -15 -4 -2 6 11 10 14 30 12 81 -2
46 1 67 8 62 5 -3 10 -4 10 0 0 3 -10 10 -22 15 -13 5 -17 9 -8 9 12 1 15 16
15 76 0 62 -3 74 -15 70 -13 -4 -13 -4 0 7 11 10 14 30 12 81 -2 46 1 67 8 62
5 -3 10 -4 10 0 0 3 -10 10 -22 15 -13 5 -17 9 -8 9 20 1 19 109 -1 122 -11 7
-10 9 3 9 9 0 20 5 24 12 4 6 3 8 -4 4 -14 -9 -20 22 -11 57 7 25 6 28 -9 23
-15 -5 -15 -4 -2 6 12 10 14 28 10 81 -3 41 -1 67 5 67 6 0 1 7 -9 15 -18 14
-18 15 -2 15 13 0 16 5 11 23 -4 12 -9 30 -12 41 -3 12 -1 16 6 12 8 -5 8 0 1
18 -8 22 -7 26 7 26 14 0 14 2 -3 15 -14 11 -15 14 -4 15 13 0 13 1 0 10 -13
9 -13 10 0 10 11 1 10 4 -4 15 -17 13 -17 15 -4 15 9 0 20 5 24 12 4 6 3 8 -4
4 -14 -9 -20 22 -11 57 7 25 6 28 -9 23 -15 -5 -15 -4 -2 6 12 10 14 28 10 81
-3 41 -1 67 5 67 6 0 1 7 -9 15 -18 14 -18 15 -2 15 13 0 16 5 11 23 -4 12 -9
30 -12 41 -3 12 -1 16 6 12 8 -5 8 0 1 18 -8 22 -7 26 7 26 14 0 14 2 -3 15
-14 11 -15 14 -4 15 13 0 13 1 0 10 -13 9 -13 10 0 10 11 1 10 4 -4 15 -17 13
-17 15 -4 15 9 0 20 5 24 12 4 6 3 8 -4 4 -14 -9 -20 22 -11 57 7 25 6 28 -9
23 -16 -6 -16 -5 0 7 10 8 13 18 9 26 -12 19 -1 53 15 47 7 -3 15 0 18 7 3 9
5 9 5 0 1 -20 21 -15 21 4 0 15 2 14 15 -3 8 -10 15 -14 15 -9 0 6 26 8 67 5
53 -4 71 -2 81 10 10 13 11 13 6 -2 -5 -15 -2 -16 23 -9 35 9 66 3 57 -11 -4
-7 -2 -8 4 -4 7 4 12 15 12 24 0 13 2 13 15 -4 11 -14 14 -15 15 -4 0 13 1 13
10 0 9 -13 10 -13 10 0 1 11 4 10 15 -4 13 -17 15 -17 15 -3 0 14 4 15 26 7
17 -7 23 -7 19 0 -4 7 2 9 18 5 14 -4 53 -7 86 -8 48 -2 61 1 62 13 0 9 4 5 9
-7 5 -13 12 -23 15 -23 4 0 3 5 0 10 -5 7 16 10 62 8 51 -2 71 1 81 12 11 13
11 13 7 0 -4 -12 8 -15 70 -15 60 0 75 3 76 15 0 9 4 5 9 -7 5 -13 12 -23 15
-23 4 0 3 5 0 10 -5 7 16 10 62 8 51 -2 71 1 81 12 11 13 11 13 7 0 -4 -11 3
-15 25 -15 19 0 30 5 30 14 0 11 4 9 15 -5 8 -10 15 -14 15 -9 0 6 26 8 67 5
53 -4 71 -2 81 10 10 13 11 13 6 -2 -5 -15 -2 -16 23 -9 35 9 66 3 57 -11 -4
-7 -2 -8 4 -4 7 4 12 15 12 24 0 13 2 13 15 -4 11 -14 14 -15 15 -4 0 13 1 13
10 0 9 -13 10 -13 10 0 1 11 4 10 15 -4 13 -17 15 -17 15 -3 0 14 4 15 26 7
18 -7 23 -7 18 1 -4 7 1 9 15 5 11 -3 30 -9 41 -12 15 -4 20 -1 20 12 0 16 1
16 15 -2 8 -10 15 -14 15 -9 0 6 26 8 67 5 53 -4 71 -2 81 10 10 13 11 13 6
-2 -5 -15 -2 -16 23 -9 35 9 66 3 57 -11 -4 -7 -2 -8 4 -4 7 4 12 15 12 24 0
13 2 13 15 -4 11 -14 14 -15 15 -4 0 13 1 13 10 0 9 -13 10 -13 10 0 1 11 4
10 15 -4 13 -17 15 -17 15 -3 0 14 4 15 26 7 18 -7 23 -7 18 1 -4 7 0 9 12 6
11 -3 29 -8 42 -12 17 -5 22 -2 22 11 0 16 1 16 15 -2 8 -10 15 -14 15 -9 0 6
26 8 67 5 53 -4 71 -2 81 10 10 13 11 13 6 -2 -5 -15 -2 -16 23 -9 35 9 66 3
57 -11 -4 -7 -2 -8 4 -4 7 4 12 15 12 24 0 13 2 14 9 3 13 -20 121 -21 122 -1
0 9 4 5 9 -7 5 -13 12 -23 15 -23 4 0 3 5 0 10 -5 7 16 10 62 8 51 -2 71 1 81
12 11 13 11 13 7 0 -4 -12 8 -15 70 -15 60 0 75 3 76 15 0 9 4 5 9 -7 5 -13
12 -23 15 -23 4 0 3 5 0 10 -5 7 16 10 62 8 51 -2 71 1 81 12 10 13 11 13 6
-2 -5 -15 -2 -16 25 -8 22 6 31 5 31 -3 0 -8 3 -7 9 2 7 11 11 10 20 -5 9 -17
10 -17 11 -2 0 15 4 16 26 8 16 -7 23 -7 19 0 -8 12 -8 12 33 1 17 -5 32 -6
32 -1 0 4 9 6 20 3 20 -5 20 0 20 361 l0 366 -2020 0 -2020 0 0 -2000z"/>
<path d="M1205 2921 c6 -11 4 -13 -7 -9 -8 4 -21 2 -28 -2 -8 -5 -21 -5 -31 0
-13 7 -16 5 -15 -13 1 -12 -3 -28 -8 -36 -8 -11 -8 -13 0 -8 7 4 11 -5 12 -23
0 -17 -5 -30 -11 -30 -9 0 -9 -2 0 -8 13 -8 12 -29 -1 -51 -6 -9 -5 -12 1 -8
6 4 10 -6 11 -23 0 -17 -5 -30 -11 -30 -8 0 -9 -2 -1 -8 15 -10 15 -283 0
-274 -7 4 -7 1 0 -9 14 -18 15 -101 1 -92 -6 4 -7 1 -1 -8 13 -22 14 -43 1
-51 -9 -6 -9 -8 0 -8 6 0 11 -13 11 -30 -1 -18 -5 -27 -12 -23 -8 5 -8 3 0 -8
7 -8 11 -61 11 -134 0 -73 -4 -126 -11 -134 -8 -11 -8 -13 0 -8 7 4 11 -5 12
-23 0 -17 -5 -30 -11 -30 -9 0 -9 -2 0 -8 13 -8 12 -29 -1 -51 -6 -9 -5 -12 1
-8 6 4 10 -6 11 -23 0 -17 -5 -30 -11 -30 -8 0 -9 -3 -1 -8 13 -8 16 -244 3
-236 -5 3 -6 -2 -3 -10 3 -9 10 -13 15 -10 12 7 -2 -29 -15 -38 -8 -5 -8 -8 0
-8 6 0 12 -11 12 -25 0 -14 -6 -25 -12 -25 -8 0 -8 -2 0 -8 15 -9 14 -123 0
-115 -6 4 -5 -1 3 -10 11 -14 11 -20 0 -34 -10 -11 -10 -14 -1 -9 8 5 12 0 12
-14 0 -13 -4 -18 -11 -15 -6 4 -5 -2 2 -13 7 -12 19 -18 27 -14 11 4 13 1 7
-9 -7 -11 -6 -12 7 -2 8 7 18 10 22 6 10 -11 37 -12 30 -2 -3 5 -10 6 -16 3
-7 -4 -8 -2 -4 4 5 9 13 9 27 2 10 -6 19 -8 19 -4 0 3 8 0 17 -7 10 -8 14 -9
10 -2 -9 15 35 14 45 -2 5 -6 8 -6 8 3 0 6 5 12 11 12 5 0 7 -6 3 -12 -6 -10
-4 -10 7 -1 17 17 43 17 33 1 -5 -8 -1 -8 10 1 15 13 19 13 27 0 6 -10 9 -10
9 -1 0 14 21 12 32 -3 5 -6 8 -6 8 2 0 6 8 10 18 8 9 -1 23 2 30 8 9 7 11 5 5
-9 -6 -17 -5 -18 11 -5 15 13 19 13 27 0 6 -10 9 -10 9 -1 0 6 5 12 11 12 5 0
7 -5 3 -12 -5 -7 -3 -8 7 -2 21 13 47 15 54 5 3 -6 18 -6 35 -1 17 5 30 6 30
2 0 -4 5 0 10 8 6 9 10 11 10 3 0 -7 7 -10 15 -7 9 4 15 1 15 -7 0 -8 6 -5 16
7 8 10 13 14 10 7 -4 -6 -2 -14 4 -18 5 -3 10 -2 10 2 0 5 9 9 20 10 12 1 18
-3 14 -9 -4 -7 0 -7 13 1 11 6 23 7 27 4 7 -7 7 -9 10 72 1 33 -1 65 -6 72 -5
7 -5 14 2 18 8 5 7 11 -2 23 -7 9 -8 13 -3 10 11 -7 12 240 1 269 -6 14 -4 14
10 2 16 -13 16 -12 7 6 -6 11 -10 47 -8 80 1 33 -2 65 -7 72 -5 7 -5 14 2 18
8 5 7 11 -2 23 -7 9 -8 13 -3 10 12 -7 14 170 2 189 -4 6 -3 15 3 18 8 5 7 12
-2 23 -7 9 -8 13 -2 9 12 -7 13 61 0 81 -4 6 -3 12 2 12 6 0 9 8 8 18 -1 13 6
16 27 15 19 -2 25 2 20 10 -5 8 -2 8 9 -1 11 -9 18 -10 23 -2 3 6 12 7 18 3
19 -12 196 -10 189 2 -3 6 1 4 10 -3 11 -9 18 -10 23 -2 3 6 12 7 18 3 19 -12
196 -10 189 2 -3 6 1 4 10 -3 11 -9 18 -10 23 -2 3 6 12 7 18 3 19 -12 196
-10 189 2 -3 6 1 4 10 -3 11 -9 18 -10 23 -2 3 6 12 7 18 3 19 -12 196 -10
189 2 -3 6 1 4 10 -3 12 -9 18 -10 23 -2 4 7 11 7 18 2 7 -5 39 -8 72 -7 33 2
69 -2 80 -8 17 -9 18 -8 7 5 -11 13 -8 15 25 9 21 -4 68 -6 106 -5 73 2 71 4
68 -65 0 -19 4 -40 11 -48 9 -11 7 -12 -8 -6 -17 6 -17 5 -5 -10 11 -14 11
-17 0 -17 -12 0 -12 -2 -1 -9 17 -11 17 -21 0 -32 -10 -7 -10 -9 0 -9 6 0 12
-5 12 -11 0 -5 -6 -7 -12 -3 -9 5 -9 2 1 -9 11 -14 11 -17 0 -17 -8 0 -5 -6 7
-15 19 -15 19 -15 -1 -8 -17 6 -18 5 -7 -9 10 -13 10 -17 0 -21 -10 -4 -10 -6
0 -6 6 -1 12 -6 12 -12 0 -5 -5 -7 -12 -3 -7 4 -8 3 -4 -5 11 -18 13 -141 3
-134 -5 3 -5 -3 1 -13 6 -11 7 -27 1 -41 -4 -12 -4 -25 0 -28 5 -3 7 -14 4
-25 -3 -11 0 -27 7 -35 11 -13 10 -14 -6 -8 -17 6 -17 5 -5 -10 11 -14 11 -17
0 -17 -12 0 -12 -2 -1 -9 17 -11 17 -21 0 -32 -10 -7 -10 -9 0 -9 6 0 12 -5
12 -11 0 -5 -6 -7 -12 -3 -9 5 -9 2 1 -9 11 -14 11 -17 0 -17 -8 0 -5 -6 7
-15 19 -15 19 -15 -1 -8 -17 6 -18 5 -7 -9 10 -13 10 -17 0 -21 -10 -4 -10 -6
0 -6 6 -1 12 -6 12 -12 0 -5 -5 -7 -12 -3 -7 4 -8 3 -4 -5 11 -18 13 -141 3
-134 -5 3 -5 -3 1 -13 6 -11 7 -27 1 -42 -6 -15 -5 -21 1 -17 6 3 10 1 10 -4
0 -6 -5 -11 -10 -11 -6 0 -5 -6 2 -14 8 -8 15 -10 19 -4 3 5 9 9 12 8 4 -1 20
-5 37 -10 17 -5 30 -5 30 0 0 8 39 5 68 -5 6 -2 12 -1 12 3 0 4 128 6 285 5
l285 -2 0 889 c0 838 -1 890 -18 891 -9 1 -23 0 -31 -1 -8 -1 -18 4 -22 12 -5
8 -9 9 -9 2 0 -6 -11 -11 -25 -11 -14 0 -25 5 -25 11 0 8 -3 8 -8 0 -9 -13
-45 -27 -38 -15 3 5 -1 12 -10 15 -8 3 -13 2 -10 -3 8 -13 -228 -10 -236 3 -5
8 -8 7 -8 -1 0 -6 -13 -11 -30 -11 -17 1 -27 5 -23 11 4 6 1 7 -8 1 -22 -13
-43 -14 -51 -1 -6 9 -8 9 -8 0 0 -6 -13 -11 -30 -11 -18 1 -27 5 -23 12 5 8 3
8 -8 0 -8 -7 -61 -11 -134 -11 -73 0 -126 4 -134 11 -11 8 -13 8 -8 0 4 -7 -5
-11 -23 -12 -17 0 -30 5 -30 11 0 9 -2 9 -8 0 -8 -13 -29 -12 -51 1 -9 6 -12
5 -8 -1 9 -14 -74 -13 -92 1 -10 7 -13 7 -9 0 9 -15 -264 -15 -274 0 -6 8 -8
7 -8 -1 0 -6 -13 -11 -30 -11 -17 1 -27 5 -23 11 4 6 1 7 -8 1 -22 -13 -43
-14 -51 -1 -6 9 -8 9 -8 0 0 -6 -13 -11 -30 -11 -18 1 -27 5 -23 12 5 8 3 8
-8 0 -8 -7 -61 -11 -134 -11 -73 0 -126 4 -134 11 -11 8 -13 8 -8 0 4 -7 -5
-11 -23 -12 -17 0 -30 5 -30 11 0 9 -2 9 -8 0 -8 -13 -29 -12 -51 1 -9 6 -12
5 -8 -1 9 -14 -74 -13 -92 1 -10 7 -13 7 -9 0 9 -15 -264 -15 -274 0 -6 8 -8
7 -8 -1 0 -6 -13 -11 -30 -11 -17 1 -27 5 -23 11 4 6 1 7 -8 1 -22 -13 -43
-14 -51 -1 -6 9 -8 9 -8 0 0 -6 -13 -11 -30 -11 -18 1 -27 5 -23 12 5 8 3 8
-8 0 -20 -15 -251 -16 -242 -1 4 7 -1 6 -10 -2 -14 -11 -20 -11 -34 0 -14 12
-16 12 -8 0z"/>
<path d="M3346 742 c-4 -6 -16 -9 -27 -7 -16 3 -20 0 -17 -18 1 -12 -1 -28 -5
-34 -5 -7 -5 -13 0 -13 10 0 9 -122 -1 -138 -4 -7 -4 -12 1 -12 12 0 10 -74
-2 -82 -7 -5 -7 -8 0 -8 10 0 11 -139 1 -166 -3 -8 -2 -14 2 -14 9 0 8 -102
-1 -118 -5 -6 -5 -12 0 -12 4 0 7 -22 6 -50 l-2 -50 370 0 369 0 0 360 0 360
-55 -3 c-34 -2 -55 1 -55 7 0 7 -3 8 -8 1 -8 -12 -82 -14 -82 -2 0 5 -5 5 -12
1 -18 -11 -138 -10 -138 1 0 7 -3 7 -8 0 -8 -12 -52 -15 -52 -4 0 5 -6 6 -14
3 -27 -10 -166 -9 -166 1 0 7 -3 7 -8 0 -9 -12 -75 -13 -83 -1 -4 4 -9 3 -13
-2z"/>
</g>
</svg>
